# xmcd
#
# Track frame offsets: 
#        150
#        17180
#        33801
#        50452
#        63442
#        78928
#        93807
#        109319
#        126013
#        140476
#        156791
#        171334
#        187264
#        202402
#        217222
#        233542
#        251926
#        268423
#        285943
#        299636
#
# Disc length: 4179 seconds
#
# Revision: 3
# Processed by: cddbd v1.5.2PL0 Copyright (c) Steve Scherf et al.
# Submitted via: ExactAudioCopy v0.99pb5
#
DISCID=39105114
DTITLE=Various Artist - Die deutsche Schlagerparade - 2005-4 - CD 1
DYEAR=2005
DGENRE=Schlager
TTITLE0=Michelle - Sag' es noch einmal
TTITLE1=Andreas Martin - Sag mir bitte wie
TTITLE2=Nicole - Alles fliesst
TTITLE3=G.G. Anderson - 3 Latte Macchiato
TTITLE4=Ireen Sheer - Bin wieder verliebt
TTITLE5=Heintje Simons - Ich sag' Danke
TTITLE6=Uwe Busse - Sommer '76
TTITLE7=Diana Sorbello - Spuren am Strand der Ewigkeit
TTITLE8=Frank Schöbel - Steh' auf und leb' dein Leben
TTITLE9=Cordalis - Sexy sexy Lady
TTITLE10=Rendezvous - Ein Kaffee und ein Kuss
TTITLE11=Xandra Hag - Zeit für den Sommer
TTITLE12=Rudy Giovannini - Dann ruf ich wieder deinen Namen
TTITLE13=Vivian Lindt - Glaubst du an Zauberei
TTITLE14=Peter Sebastian - Aus Freude am Leben
TTITLE15=Guido Hoffmann feat. Freddy The Piper - Song of Eilean
TTITLE16=Tina York - Du bist Champagner für die Augen
TTITLE17=Leonard - Wann hab ich dich verlorn?
TTITLE18=Janis Nikos - Viva Bonita
TTITLE19=Die Gerd Show - Angie and Gerd - Im Wahlkampf vor mir (Zonenmäd
TTITLE19=chen)
EXTD=
EXTT0=
EXTT1=
EXTT2=
EXTT3=
EXTT4=
EXTT5=
EXTT6=
EXTT7=
EXTT8=
EXTT9=
EXTT10=
EXTT11=
EXTT12=
EXTT13=
EXTT14=
EXTT15=
EXTT16=
EXTT17=
EXTT18=
EXTT19=
PLAYORDER=
